<svg width="35" height="60" viewBox="0 0 35 60" fill="none" xmlns="http://www.w3.org/2000/svg">
<path d="M1.49312 9.64H0.493125V10.64H1.49312V9.64ZM1.49312 7.88L1.37553 6.88693L0.493125 6.99143V7.88H1.49312ZM24.2131 2.04L24.6603 1.14557L24.251 0.940893L23.8285 1.11692L24.2131 2.04ZM25.8131 2.84H26.8131V2.22196L26.2603 1.94557L25.8131 2.84ZM26.1331 56.12L25.3523 56.7447L25.4217 56.8315L25.5084 56.9009L26.1331 56.12ZM27.6531 56.6L27.5117 57.59L27.6531 56.6ZM33.2531 57.4H34.2531V56.5327L33.3945 56.41L33.2531 57.4ZM33.2531 59V60H34.2531V59H33.2531ZM1.25313 59H0.253125V60H1.25313V59ZM1.25313 57.4L1.12754 56.4079L0.253125 56.5186V57.4H1.25313ZM7.57313 56.6L7.69871 57.5921L7.73418 57.5876L7.76924 57.5806L7.57313 56.6ZM9.09313 56.04L8.46843 55.2591L8.42518 55.2937L8.38602 55.3329L9.09313 56.04ZM9.49312 9.64H10.4931V8.64H9.49312V9.64ZM2.49312 9.64V7.88H0.493125V9.64H2.49312ZM1.61072 8.87306C9.80276 7.90295 17.4666 5.93438 24.5977 2.96308L23.8285 1.11692C16.8796 4.01229 9.39682 5.93705 1.37553 6.88693L1.61072 8.87306ZM23.7659 2.93443L25.3659 3.73443L26.2603 1.94557L24.6603 1.14557L23.7659 2.93443ZM24.8131 2.84V54.84H26.8131V2.84H24.8131ZM24.8131 54.84C24.8131 55.5062 24.9264 56.2123 25.3523 56.7447L26.914 55.4953C26.9191 55.5017 26.8914 55.4699 26.8633 55.3575C26.8351 55.2448 26.8131 55.0769 26.8131 54.84H24.8131ZM25.5084 56.9009C26.0042 57.2975 26.7544 57.4818 27.5117 57.59L27.7945 55.6101C27.4549 55.5615 27.1988 55.5047 27.0143 55.4464C26.8204 55.3852 26.7566 55.3382 26.7578 55.3391L25.5084 56.9009ZM27.5117 57.59L33.1117 58.3899L33.3945 56.41L27.7945 55.6101L27.5117 57.59ZM32.2531 57.4V59H34.2531V57.4H32.2531ZM33.2531 58H1.25313V60H33.2531V58ZM2.25313 59V57.4H0.253125V59H2.25313ZM1.37871 58.3921L7.69871 57.5921L7.44755 55.6079L1.12754 56.4079L1.37871 58.3921ZM7.76924 57.5806C8.19721 57.495 8.57893 57.3962 8.89883 57.2783C9.19721 57.1684 9.53982 57.0075 9.80023 56.7471L8.38602 55.3329C8.4331 55.2858 8.41571 55.3249 8.20742 55.4017C8.02066 55.4705 7.74904 55.545 7.37701 55.6194L7.76924 57.5806ZM9.71782 56.8209C10.3635 56.3043 10.4931 55.4575 10.4931 54.76H8.49312C8.49312 55.0186 8.46521 55.1767 8.43865 55.2617C8.41326 55.3429 8.40472 55.3101 8.46843 55.2591L9.71782 56.8209ZM10.4931 54.76V9.64H8.49312V54.76H10.4931ZM9.49312 8.64H1.49312V10.64H9.49312V8.64Z" fill="#FAFAFF"/>
</svg>
