<svg width="49" height="59" viewBox="0 0 49 59" fill="none" xmlns="http://www.w3.org/2000/svg">
<path d="M37.8938 33.44L37.2177 32.7032L37.2139 32.7067L37.8938 33.44ZM19.1738 46.32L18.7112 45.4334L19.1738 47.32V46.32ZM44.4538 46L45.1609 46.7071L45.2 46.6679L45.2346 46.6247L44.4538 46ZM45.0137 44.4L44.0363 44.1887L44.0347 44.1963L44.0332 44.2039L45.0137 44.4ZM45.6538 41.44V40.44H44.8469L44.6763 41.2287L45.6538 41.44ZM47.2538 41.44H48.2538V40.44H47.2538V41.44ZM47.2538 58V59H48.2538V58H47.2538ZM2.37375 58L1.46183 58.4104L1.72716 59H2.37375V58ZM1.65375 56.4L1.0907 55.5736L0.397733 56.0457L0.741829 56.8104L1.65375 56.4ZM22.5338 36.08L21.6792 35.5607L22.5338 36.08ZM26.5338 8L25.7363 8.60344L25.7415 8.6102L25.7467 8.61688L26.5338 8ZM3.89375 10.48L3.04826 11.014L3.59074 11.8729L4.441 11.317L3.89375 10.48ZM2.93375 8.96L2.34804 8.14947L1.58661 8.69971L2.08826 9.49399L2.93375 8.96ZM41.2537 5.2L40.5601 5.92035L40.5667 5.92664L41.2537 5.2ZM44.6538 16.88C44.6538 22.8592 42.2111 28.1216 37.2177 32.7032L38.5698 34.1768C43.9231 29.2651 46.6538 23.4875 46.6538 16.88H44.6538ZM37.2139 32.7067C32.1701 37.3827 26.0067 41.6271 18.7112 45.4334L19.6363 47.2066C27.0608 43.3329 33.3774 38.9907 38.5736 34.1733L37.2139 32.7067ZM19.1738 47.32H43.2538V45.32H19.1738V47.32ZM43.2538 47.32C43.8852 47.32 44.647 47.2209 45.1609 46.7071L43.7466 45.2929C43.8023 45.2373 43.8267 45.2496 43.7361 45.2738C43.647 45.2975 43.4931 45.32 43.2538 45.32V47.32ZM45.2346 46.6247C45.443 46.3642 45.5881 46.0433 45.6976 45.7304C45.8114 45.4053 45.9088 45.0235 45.9943 44.5961L44.0332 44.2039C43.9587 44.5765 43.8828 44.8614 43.8099 45.0696C43.7738 45.1729 43.7412 45.249 43.7143 45.3028C43.6867 45.358 43.6711 45.3775 43.6729 45.3753L45.2346 46.6247ZM45.9912 44.6113L46.6312 41.6513L44.6763 41.2287L44.0363 44.1887L45.9912 44.6113ZM45.6538 42.44H47.2538V40.44H45.6538V42.44ZM46.2538 41.44V58H48.2538V41.44H46.2538ZM47.2538 57H2.37375V59H47.2538V57ZM3.28567 57.5896L2.56567 55.9896L0.741829 56.8104L1.46183 58.4104L3.28567 57.5896ZM2.21681 57.2264C11.9927 50.5659 19.0754 43.6966 23.3883 36.5993L21.6792 35.5607C17.5655 42.3301 10.7281 49.0074 1.0907 55.5736L2.21681 57.2264ZM23.3883 36.5993C27.6688 29.5555 29.8538 22.7904 29.8538 16.32H27.8538C27.8538 22.3296 25.8254 28.7378 21.6792 35.5607L23.3883 36.5993ZM29.8538 16.32C29.8538 12.6157 29.0534 9.59367 27.3208 7.38312L25.7467 8.61688C27.1074 10.353 27.8538 12.8776 27.8538 16.32H29.8538ZM27.3312 7.39656C25.6054 5.11608 23.0073 4.04 19.7338 4.04V6.04C22.5402 6.04 24.4754 6.93724 25.7363 8.60344L27.3312 7.39656ZM19.7338 4.04C16.7474 4.04 13.9621 4.51038 11.3871 5.462L12.0804 7.33799C14.4121 6.47628 16.9601 6.04 19.7338 6.04V4.04ZM11.3871 5.462C8.84756 6.40053 6.16687 7.79894 3.3465 9.64303L4.441 11.317C7.16729 9.53439 9.71327 8.2128 12.0804 7.33799L11.3871 5.462ZM4.73924 9.946L3.77924 8.426L2.08826 9.49399L3.04826 11.014L4.73924 9.946ZM3.51946 9.77052C10.6601 4.61048 18.5095 2.04 27.0938 2.04V0.039999C18.078 0.039999 9.82071 2.74952 2.34804 8.14947L3.51946 9.77052ZM27.0938 2.04C33.552 2.04 37.9551 3.41176 40.5601 5.92032L41.9474 4.47968C38.7924 1.44157 33.7555 0.039999 27.0938 0.039999V2.04ZM40.5667 5.92664C43.254 8.46728 44.6538 12.0706 44.6538 16.88H46.6538C46.6538 11.6628 45.1202 7.47938 41.9408 4.47335L40.5667 5.92664Z" fill="#FAFAFF"/>
</svg>
