<svg width="48" height="60" viewBox="0 0 48 60" fill="none" xmlns="http://www.w3.org/2000/svg">
<path d="M26.8247 53.36L27.6056 53.9847L26.8247 53.36ZM26.5047 33.2L25.7171 33.8163L25.7238 33.8247L26.5047 33.2ZM14.5847 29.52H13.5847V30.52H14.5847V29.52ZM14.5847 27.12V26.12H13.5847V27.12H14.5847ZM25.3047 24.32L26.0747 24.958L25.3047 24.32ZM2.90469 9.04L2.0592 9.57399L2.57761 10.3948L3.41342 9.90092L2.90469 9.04ZM1.94469 7.52L1.39325 6.68578L0.57618 7.22588L1.0992 8.05399L1.94469 7.52ZM12.1047 2.72L11.8096 1.76452H11.8096L12.1047 2.72ZM38.6647 4.64L38.1013 5.46627L38.11 5.47205L38.6647 4.64ZM40.3447 23.04L39.6375 22.3328L39.6297 22.3409L40.3447 23.04ZM30.5847 28.24L30.3363 27.2713L30.4433 29.2299L30.5847 28.24ZM41.9447 33.04L41.267 33.7754L41.9447 33.04ZM39.6247 55.2L40.115 56.0716L40.1232 56.0669L39.6247 55.2ZM9.70469 57.92L9.53 58.9046L9.53269 58.9051L9.70469 57.92ZM1.86469 55.52L0.868225 55.436L0.812604 56.0955L1.39793 56.4044L1.86469 55.52ZM2.98469 42.24V41.24H2.06547L1.98823 42.156L2.98469 42.24ZM4.82469 42.24L5.78298 41.9542L5.56997 41.24H4.82469V42.24ZM7.70469 49.76L8.59425 49.3032L7.70469 49.76ZM11.8647 54.64L11.2765 55.4488L11.288 55.457L11.8647 54.64ZM18.9047 57.56C22.6808 57.56 25.6539 56.4242 27.6056 53.9847L26.0438 52.7353C24.5821 54.5624 22.2752 55.56 18.9047 55.56V57.56ZM27.6056 53.9847C29.526 51.5842 30.3847 47.8629 30.3847 43.04H28.3847C28.3847 47.7104 27.5368 50.8691 26.0438 52.7353L27.6056 53.9847ZM30.3847 43.04C30.3847 38.7329 29.3904 35.2063 27.2856 32.5753L25.7238 33.8247C27.459 35.9937 28.3847 39.0271 28.3847 43.04H30.3847ZM27.2922 32.5837C25.1387 29.832 21.9331 28.52 17.8647 28.52V30.52C21.4763 30.52 24.0307 31.6613 25.7172 33.8163L27.2922 32.5837ZM17.8647 28.52H14.5847V30.52H17.8647V28.52ZM15.5847 29.52V27.12H13.5847V29.52H15.5847ZM14.5847 28.12H17.9447V26.12H14.5847V28.12ZM17.9447 28.12C21.4817 28.12 24.2725 27.1331 26.0747 24.958L24.5347 23.682C23.2435 25.2403 21.1277 26.12 17.9447 26.12V28.12ZM26.0747 24.958C27.8352 22.8333 28.6247 19.7049 28.6247 15.76H26.6247C26.6247 19.4951 25.8676 22.0733 24.5347 23.682L26.0747 24.958ZM28.6247 15.76C28.6247 11.8925 27.7152 8.83626 25.6918 6.81289L24.2776 8.2271C25.7742 9.72373 26.6247 12.1609 26.6247 15.76H28.6247ZM25.6918 6.81289C23.6756 4.79669 20.7071 3.88 16.9847 3.88V5.88C20.409 5.88 22.7738 6.7233 24.2776 8.2271L25.6918 6.81289ZM16.9847 3.88C12.0852 3.88 7.21815 5.32959 2.39596 8.17907L3.41342 9.90092C7.97789 7.20374 12.4975 5.88 16.9847 5.88V3.88ZM3.75018 8.506L2.79018 6.986L1.0992 8.05399L2.0592 9.57399L3.75018 8.506ZM2.49612 8.35422C5.56303 6.32694 8.8633 4.76762 12.3998 3.67547L11.8096 1.76452C8.09275 2.91238 4.61968 4.55305 1.39325 6.68578L2.49612 8.35422ZM12.3998 3.67547C15.9104 2.5913 19.9941 2.04 24.6647 2.04V0.039999C19.8419 0.039999 15.5523 0.608696 11.8096 1.76452L12.3998 3.67547ZM24.6647 2.04C30.3484 2.04 34.7979 3.2139 38.1014 5.46622L39.228 3.81377C35.4914 1.26609 30.6076 0.039999 24.6647 0.039999V2.04ZM38.11 5.47205C41.3407 7.62586 42.9447 10.6675 42.9447 14.72H44.9447C44.9447 10.0259 43.0287 6.34747 39.2194 3.80795L38.11 5.47205ZM42.9447 14.72C42.9447 17.5793 41.8663 20.1041 39.6376 22.3329L41.0518 23.7471C43.623 21.1759 44.9447 18.1541 44.9447 14.72H42.9447ZM39.6297 22.3409C37.4421 24.5782 34.3678 26.2376 30.3363 27.2713L30.8331 29.2087C35.1216 28.1091 38.5539 26.3018 41.0597 23.7391L39.6297 22.3409ZM30.4433 29.2299C35.1605 29.9038 38.7374 31.4441 41.267 33.7754L42.6224 32.3046C39.712 29.6225 35.7156 27.9628 30.7261 27.25L30.4433 29.2299ZM41.267 33.7754C43.7666 36.0789 45.0247 39.0317 45.0247 42.72H47.0247C47.0247 38.515 45.5628 35.0144 42.6224 32.3046L41.267 33.7754ZM45.0247 42.72C45.0247 48.3101 43.018 52.0953 39.1262 54.3331L40.1232 56.0669C44.7647 53.398 47.0247 48.8632 47.0247 42.72H45.0247ZM39.1344 54.3284C35.0916 56.6025 28.8717 57.8 20.3447 57.8V59.8C28.991 59.8 35.6244 58.5975 40.1149 56.0716L39.1344 54.3284ZM20.3447 57.8C16.6637 57.8 13.1749 57.5108 9.87669 56.9349L9.53269 58.9051C12.9545 59.5026 16.5591 59.8 20.3447 59.8V57.8ZM9.87938 56.9354C6.62533 56.358 4.12414 55.5818 2.33145 54.6356L1.39793 56.4044C3.44524 57.4849 6.17072 58.3086 9.53 58.9046L9.87938 56.9354ZM2.86115 55.604L3.98115 42.324L1.98823 42.156L0.868225 55.436L2.86115 55.604ZM2.98469 43.24H4.82469V41.24H2.98469V43.24ZM3.8664 42.5258C4.78384 45.6019 5.76454 48.1709 6.81512 50.2168L8.59425 49.3032C7.61817 47.4024 6.67887 44.9581 5.78298 41.9542L3.8664 42.5258ZM6.81512 50.2168C7.89855 52.3266 9.38737 54.0748 11.2765 55.4487L12.4529 53.8313C10.822 52.6452 9.5375 51.14 8.59425 49.3032L6.81512 50.2168ZM11.288 55.457C13.314 56.887 15.8793 57.56 18.9047 57.56V55.56C16.17 55.56 14.0421 54.9529 12.4414 53.823L11.288 55.457Z" fill="#FAFAFF"/>
</svg>
